<svg width="17" height="17" viewBox="0 0 17 17" fill="none" xmlns="http://www.w3.org/2000/svg">
<path d="M8.5 17C13.1944 17 17 13.1944 17 8.5C17 3.80558 13.1944 0 8.5 0C3.80558 0 0 3.80558 0 8.5C0 13.1944 3.80558 17 8.5 17Z" fill="#FF635F"/>
<path fill-rule="evenodd" clip-rule="evenodd" d="M11.7916 5.70711C12.1821 5.31658 12.1821 4.68342 11.7916 4.29289C11.4011 3.90237 10.7679 3.90237 10.3774 4.29289L8.04225 6.62804L5.70711 4.29289C5.31658 3.90237 4.68342 3.90237 4.29289 4.29289C3.90237 4.68342 3.90237 5.31658 4.29289 5.70711L6.62804 8.04225L4.29289 10.3774C3.90237 10.7679 3.90237 11.4011 4.29289 11.7916C4.68342 12.1821 5.31658 12.1821 5.70711 11.7916L8.04225 9.45647L10.3774 11.7916C10.7679 12.1821 11.4011 12.1821 11.7916 11.7916C12.1821 11.4011 12.1821 10.7679 11.7916 10.3774L9.45647 8.04225L11.7916 5.70711Z" fill="white"/>
</svg>
