<svg width="15" height="20" viewBox="0 0 15 20" fill="none" xmlns="http://www.w3.org/2000/svg">
<g clip-path="url(#clip0)">
<path fill-rule="evenodd" clip-rule="evenodd" d="M0.0675658 19C0.0675658 19.5523 0.515281 20 1.06757 20C1.61985 20 2.06757 19.5523 2.06757 19V1C2.06757 0.447716 1.61985 3.25549e-07 1.06757 3.49691e-07C0.51528 3.73832e-07 0.067565 0.447716 0.067565 1L0.0675658 19ZM4.06757 19C4.06757 19.5523 4.51528 20 5.06757 20C5.61985 20 6.06757 19.5523 6.06757 19V5C6.06757 4.44771 5.61985 4 5.06757 4C4.51528 4 4.06757 4.44771 4.06757 5V19ZM9.06757 20C8.51528 20 8.06757 19.5523 8.06757 19V1C8.06757 0.447715 8.51528 2.4141e-08 9.06757 0C9.61985 -2.4142e-08 10.0676 0.447715 10.0676 1V19C10.0676 19.5523 9.61985 20 9.06757 20ZM12.0676 19C12.0676 19.5523 12.5153 20 13.0676 20C13.6199 20 14.0676 19.5523 14.0676 19V5C14.0676 4.44771 13.6199 4 13.0676 4C12.5153 4 12.0676 4.44771 12.0676 5V19Z" fill="#FFB100"/>
</g>
<defs>
<clipPath id="clip0">
<rect width="15" height="20" fill="white"/>
</clipPath>
</defs>
</svg>
