<svg xmlns="http://www.w3.org/2000/svg" width="349.139" height="281.114" viewBox="0 0 349.139 281.114">
  <g id="Group_164" data-name="Group 164" transform="translate(-0.016 0.203)">
    <g id="Group_160" data-name="Group 160" transform="translate(0.016 -0.203)">
      <path id="Path_77" data-name="Path 77" d="M60.1,214.822c2.932-.122,5.864-.122,8.8-.122l8.8.489,17.47,1.1,17.47,1.1,8.8.489c2.932.366,5.864.733,8.674,1.222-2.932.122-5.864.122-8.8.122l-8.8-.489-17.47-1.1-17.47-1.1-8.8-.489C65.842,215.677,62.91,215.189,60.1,214.822Z" transform="translate(13.304 47.844)" fill="#6fc0ce"/>
      <path id="Path_78" data-name="Path 78" d="M60,75.505c.733-.855,1.466-1.71,2.321-2.566.977-.611,1.833-1.222,2.81-1.833,1.955-1.1,3.909-2.2,5.986-3.176a43.812,43.812,0,0,1,6.231-2.443L78.936,65a7.9,7.9,0,0,0,1.588-.489,31.949,31.949,0,0,1,3.421,0c-1.1.489-2.077.855-3.054,1.344-.489.122-1.1.244-1.588.367l-1.588.489a53.047,53.047,0,0,0-6.108,2.443c-1.955.977-3.909,1.955-5.864,3.054-.977.611-1.833,1.1-2.81,1.71Z" transform="translate(13.282 14.537)" fill="#aa5c26"/>
      <path id="Path_79" data-name="Path 79" d="M102.121,158.924s12.339-19.3,42.515-31.764c0,0,12.95-4.52,12.461-14.416,0,0-.855-7.7,5.131-9.04h47.035s3.176-.489,3.543,3.421c0,0,27.854,10.262,38.117,21.5,0,0,29.443,24.434,29.809,53.632,0,0,1.222,32.252-17.47,29.2l-113.128-9.04C150.256,202.416,63.149,211.7,102.121,158.924Z" transform="translate(20.395 23.233)" fill="#f8dd94"/>
      <path id="Path_80" data-name="Path 80" d="M147.011,86.418v32.253s-1.466,11.85,9.9,12.706c0,0,36.651,5.131,35.918-15.271V77.5S147.744,78.355,147.011,86.418Z" transform="translate(32.557 17.429)" fill="#eec4a0"/>
      <path id="Path_81" data-name="Path 81" d="M223.591,63.745c-3.421-5.375-8.063-1.1-8.063-1.1-2.077,2.688-3.3,3.909-4.52,4.276C210.031,37.479,191.95,13.9,169.715,13.9,146.87,13.9,128.3,38.7,128.3,69.365s18.57,55.465,41.415,55.465c17.959,0,33.108-14.538,38.85-36.04,5.62,5.864,12.095-4.4,12.095-4.4C227.99,72.419,223.591,63.745,223.591,63.745Z" transform="translate(28.423 3.329)" fill="#fedfc0"/>
      <path id="Path_82" data-name="Path 82" d="M138.19,104.133S127.439,84.1,133.181,61.74c0,0,2.688-11.606,17.348-25.411A54.406,54.406,0,0,0,161.28,19.714h.733s8.43,10.018,21.5,14.294c0,0,19.669,5.009,27,31.519,0,0,1.1,6.108,3.421,6.108,0,0,1.588.367,1.955-1.588,0,0,1.1-7.33,7.33-5.009,0,0,5.742,1.588,2.688,15.027,0,0-3.421,13.805-13.439,11.973,0,0-1.955-.367-2.321-1.588,0,0-1.955,12.339-6.6,16.126,0,0,6.108,7.7,11.973,0V108.9s11.117,5.742,13.439-5.742c0,0,9.285-36.162-15.76-74.645,0,0-15.393-33.108-43.492-25.045,0,0-10.751-10.018-21.5,3.054,0,0-15.393,7.7-16.615,22.723,0,0,.733,5.375-8.43,18.081,0,0-15.027,16.126,3.054,52.777C126.339,100.345,133.547,113.051,138.19,104.133Z" transform="translate(25.986 0.203)" fill="#313a52"/>
      <path id="Path_83" data-name="Path 83" d="M103.127,97.454,120.841,183.7s3.665,14.049-7.941,18.692c0,0-25.045,10.751-30.786-41.9l.611-52.9S71,108.2,65.988,97.332a33.4,33.4,0,0,0-8.063-10.018s-14.294-12.339-8.8-18.447c0,0,3.054-5.009,16.615,8.8l.733-.733s-15.393-18.447-8.43-23.823c0,0,4.642-6.964,21.135,17.714l.733-.733s-12.339-20.4-5.742-23.823c0,0,4.642-5.009,20.4,22.357l.367-.733S88.833,57.138,96.9,55.184c0,0,4.642-1.588,5.375,4.276A64.57,64.57,0,0,0,106.548,71.8s8.8,18.447-7.33,29.687" transform="translate(10.593 10.425)" fill="#fedfc0"/>
      <path id="Path_84" data-name="Path 84" d="M25.3,222.916l118.5,5.742,61.329-35.185s5.742-4.887-6.108-5.864L96.036,182.6Z" transform="translate(5.59 40.728)" fill="#819ea5"/>
      <path id="Path_85" data-name="Path 85" d="M155.8,50.6c.367.855.733,1.588,1.1,2.443.122.489.244.855.367,1.344a5.2,5.2,0,0,1,.244,1.344,26.43,26.43,0,0,1,.244,5.375,38.425,38.425,0,0,1-.367,5.375,36.548,36.548,0,0,1-1.222,5.253h0a7.157,7.157,0,0,0-.489,3.543,2.078,2.078,0,0,0,.733,1.222,3.136,3.136,0,0,0,1.466.611,4.627,4.627,0,0,0,1.833,0c.367,0,.611-.122.977-.122s.611-.122.977-.122a37.4,37.4,0,0,0,3.909-.611,25.641,25.641,0,0,1-3.665,1.833c-.367.122-.611.244-.977.367-.367,0-.733.122-1.1.122a6.643,6.643,0,0,1-2.2,0,5.487,5.487,0,0,1-2.2-.855,3.652,3.652,0,0,1-1.222-2.077,6.63,6.63,0,0,1,0-2.2,6.7,6.7,0,0,1,.611-2.077v.122a34.75,34.75,0,0,0,1.1-5.131,36.684,36.684,0,0,0,.367-5.253c0-1.71-.122-3.543-.244-5.253a5.29,5.29,0,0,0-.122-.611V53.288A9.93,9.93,0,0,0,155.8,50.6Z" transform="translate(34.148 11.465)" fill="#b99b8b"/>
      <path id="Path_86" data-name="Path 86" d="M158.1,107.8a39.739,39.739,0,0,0,5.375-.367,38.181,38.181,0,0,0,5.253-.489,31.748,31.748,0,0,0,9.9-3.421,34.765,34.765,0,0,0,4.52-2.81c.733-.489,1.344-1.1,2.077-1.588.611-.611,1.344-1.1,1.955-1.71l.977-.977a6.118,6.118,0,0,0,.855-.977c.611-.611,1.1-1.344,1.71-1.955s1.222-1.222,1.833-1.955l1.833-1.955a22.778,22.778,0,0,1-1.222,2.443c-.489.733-.855,1.588-1.344,2.321-.611.733-1.1,1.466-1.71,2.077a7.373,7.373,0,0,1-.977.977l-.977.977c-.611.611-1.344,1.222-2.077,1.833s-1.344,1.1-2.2,1.71a26.117,26.117,0,0,1-4.642,2.81,37.848,37.848,0,0,1-10.262,3.543,42.632,42.632,0,0,1-5.375.611A36.472,36.472,0,0,1,158.1,107.8Z" transform="translate(35.029 20.111)" fill="#b99b8b"/>
      <path id="Path_87" data-name="Path 87" d="M147.089,104.2l.733,3.3v8.185a6.133,6.133,0,0,0,.244,1.466,10.438,10.438,0,0,0,2.81,5.375l.611.489c.244.122.367.244.611.367a4.74,4.74,0,0,0,1.344.733,13.331,13.331,0,0,0,1.344.733l1.588.611c-.489,0-1.1.122-1.71.122a8.249,8.249,0,0,1-1.71-.244,10.1,10.1,0,0,1-1.588-.855c-.244-.122-.489-.367-.733-.489l-.611-.611a11.377,11.377,0,0,1-3.176-6.108,8.25,8.25,0,0,1-.244-1.71v-8.307A15.7,15.7,0,0,1,147.089,104.2Z" transform="translate(32.48 23.348)" fill="#d1bb7c"/>
      <path id="Path_88" data-name="Path 88" d="M198.233,70.373a10.3,10.3,0,0,1-.733-1.71,7.512,7.512,0,0,1,.122-1.71,18.278,18.278,0,0,1,.733-3.543,9.477,9.477,0,0,1,1.71-3.3,5.269,5.269,0,0,1,1.344-1.344,5.533,5.533,0,0,1,1.955-.367,6.576,6.576,0,0,0-1.1,1.466c-.122.122-.244.122-.244.244-.122.122-.122.244-.244.244-.122.244-.367.367-.489.611a12.311,12.311,0,0,0-1.466,2.81,13.305,13.305,0,0,0-.611,3.176c0,.611-.122,1.1-.122,1.71A11.168,11.168,0,0,0,198.233,70.373Z" transform="translate(43.764 13.195)" fill="#b99b8b"/>
      <path id="Path_89" data-name="Path 89" d="M154,83.764c1.1-.122,2.077-.244,3.176-.367a25.535,25.535,0,0,0,3.054.122,33.4,33.4,0,0,0,6.108-.611,22.53,22.53,0,0,0,5.742-1.833,29.229,29.229,0,0,0,2.566-1.588,19.441,19.441,0,0,0,2.688-1.588,13.078,13.078,0,0,1-1.833,2.688,21.516,21.516,0,0,1-2.81,1.71,22.265,22.265,0,0,1-6.108,1.955,37.282,37.282,0,0,1-6.353.611,27.612,27.612,0,0,1-3.176-.122A8.945,8.945,0,0,1,154,83.764Z" transform="translate(34.12 17.517)" fill="#b99b8b"/>
      <path id="Path_90" data-name="Path 90" d="M93.9,91.5c.855,2.688,1.588,5.375,2.321,8.063l1.71,8.185,3.3,16.371,3.3,16.371,1.71,8.185c.367,2.81.733,5.5.977,8.307-.855-2.688-1.588-5.375-2.321-8.063l-1.71-8.185-3.3-16.371-3.421-16.371-1.71-8.185C94.511,97.12,94.144,94.31,93.9,91.5Z" transform="translate(20.797 20.532)" fill="#b99b8b"/>
      <path id="Path_91" data-name="Path 91" d="M99.706,73.4a10.831,10.831,0,0,1,.855,3.421,32.2,32.2,0,0,1-.244,3.421,24.212,24.212,0,0,1-1.955,6.6,18.03,18.03,0,0,1-4.154,5.62,23.848,23.848,0,0,1-2.81,2.077,16.881,16.881,0,0,1-3.3.977,22.126,22.126,0,0,0,2.566-2.2,20.283,20.283,0,0,0,2.566-1.955,16.044,16.044,0,0,0,3.787-5.253,18.352,18.352,0,0,0,1.833-6.231,29.954,29.954,0,0,0,.244-3.3A13.305,13.305,0,0,0,99.706,73.4Z" transform="translate(19.511 16.52)" fill="#b99b8b"/>
      <path id="Path_92" data-name="Path 92" d="M77.1,74.2a13.35,13.35,0,0,1,2.077.611l1.466,1.466a12.85,12.85,0,0,1,2.443,3.3c.367.611.611,1.222.977,1.833a12.008,12.008,0,0,1,.611,1.955c.122.367.122.733.244.977,0,.367.122.733.122,1.1a10.32,10.32,0,0,1-.611,2.077c-.122-.367-.244-.611-.367-.977s-.244-.611-.367-.977c0-.367-.122-.611-.122-.977a2.875,2.875,0,0,0-.244-.977,10.751,10.751,0,0,0-.611-1.833,7.464,7.464,0,0,0-.855-1.71,11.24,11.24,0,0,0-2.321-3.054A13.934,13.934,0,0,0,78.2,75.666,5.059,5.059,0,0,1,77.1,74.2Z" transform="translate(17.073 16.697)" fill="#b99b8b"/>
      <path id="Path_93" data-name="Path 93" d="M165.8,12.3a41.989,41.989,0,0,1,6.719,1.833c2.077.977,4.276,1.955,6.231,3.054a62.034,62.034,0,0,1,11.484,7.941,45,45,0,0,1,9.04,10.751,38.048,38.048,0,0,1,3.054,6.353,34.408,34.408,0,0,1,1.1,6.964,41.427,41.427,0,0,0-2.443-6.475,40,40,0,0,0-2.932-6.108,44.62,44.62,0,0,0-8.8-10.384,59.66,59.66,0,0,0-11.24-7.819c-1.955-1.1-4.032-2.077-6.231-3.054C169.954,14.255,167.877,13.277,165.8,12.3Z" transform="translate(36.736 2.975)" fill="#74808e"/>
      <path id="Path_94" data-name="Path 94" d="M147,125.717c2.443.367,4.887.733,7.452.977q3.665.733,7.33,1.1a85.554,85.554,0,0,0,14.782.611,50.24,50.24,0,0,0,7.33-.977,26.6,26.6,0,0,0,6.841-2.321,17.978,17.978,0,0,0,5.62-4.4,18.7,18.7,0,0,0,3.909-6.108,17.619,17.619,0,0,1-2.81,7.086,22.391,22.391,0,0,1-5.986,4.765,26.46,26.46,0,0,1-7.208,2.443,51.891,51.891,0,0,1-7.452.977,88.394,88.394,0,0,1-15.027-.611c-2.443-.244-5.009-.733-7.452-1.1C151.765,127.306,149.321,126.573,147,125.717Z" transform="translate(32.569 25.653)" fill="#d1bb7c"/>
      <path id="Path_95" data-name="Path 95" d="M199.9,110.2a60.916,60.916,0,0,1,8.918,3.421c2.81,1.466,5.5,3.176,8.185,4.887a108.432,108.432,0,0,1,14.9,11.973,88.861,88.861,0,0,1,6.6,6.964c2.077,2.443,4.032,5.009,5.864,7.574a81.626,81.626,0,0,1,5.009,8.185,79.657,79.657,0,0,1,3.543,8.918c-1.588-2.81-3.054-5.62-4.765-8.185a79.992,79.992,0,0,0-5.009-8.063c-1.833-2.566-3.787-5.009-5.742-7.452-2.077-2.321-4.154-4.642-6.475-6.841a106.5,106.5,0,0,0-14.782-11.85c-2.566-1.71-5.375-3.421-8.063-4.887C205.4,113.254,202.71,111.666,199.9,110.2Z" transform="translate(44.296 24.678)" fill="#d1bb7c"/>
      <path id="Path_96" data-name="Path 96" d="M62.1,213.444l76.966,3.787,39.827-22.846s3.665-3.176-3.909-3.787l-66.826-3.3Z" transform="translate(13.748 41.77)" fill="#5f929b"/>
      <path id="Path_97" data-name="Path 97" d="M.119,146.269,27,227.389s1.588,5.5,7.33,5.742l113.861,5.5s5.131.611,3.054-4.887L129.5,152.5s-1.1-7.33-13.805-7.941L7.082,139.3S-.981,138.45.119,146.269Z" transform="translate(-0.016 31.124)" fill="#99cace"/>
      <path id="Path_98" data-name="Path 98" d="M68.779,184.075c-1.1,4.276-6.108,6.719-11.117,5.5-5.131-1.222-8.307-5.742-7.33-10.018,1.1-4.276,6.108-6.719,11.117-5.5S69.757,179.8,68.779,184.075Z" transform="translate(11.1 38.764)" fill="#e5f4f8"/>
      <path id="Path_99" data-name="Path 99" d="M10.8,139.522c3.665-.122,7.208-.122,10.873-.122l10.751.489,21.624,1.1,21.624,1.1,10.751.489c3.543.367,7.208.733,10.751,1.222-3.665.122-7.208.122-10.873.122l-10.751-.489-21.624-1.1-21.624-1.1-10.751-.489C18.008,140.377,14.343,140.011,10.8,139.522Z" transform="translate(2.375 31.151)" fill="#6fc0ce"/>
      <path id="Path_100" data-name="Path 100" d="M47.911,178.5a13.026,13.026,0,0,0,.855,2.321c.122.733.367,1.588.489,2.321a12.009,12.009,0,0,0,2.321,4.032l.367.367.489.367c.367.244.611.489.977.733l.977.611a4.342,4.342,0,0,1,1.1.489l.489.244.611.122c.366.122.733.122,1.1.244.733.367,1.588.611,2.321.977a18.965,18.965,0,0,1-2.566.489,4.34,4.34,0,0,0-1.222-.244l-.611-.122L55,191.206c-.367-.122-.855-.367-1.222-.489l-1.1-.611-1.1-.733-.489-.367-.489-.489A12.041,12.041,0,0,1,47.911,184a19.528,19.528,0,0,1-.611-2.566A9.526,9.526,0,0,1,47.911,178.5Z" transform="translate(10.467 39.819)" fill="#6fc0ce"/>
      <path id="Path_101" data-name="Path 101" d="M178.336,179.98l33.963-7.208s48.623-10.14,51.677,14.66c0,0,.733,17.592-23.823,21.746a140.82,140.82,0,0,1-50.211-6.6s-22.479-5.131-34.207,4.154v.367s2.443-.977,2.443.367h.367s6.231-5.131,8.674-1.71c0,0,2.81,4.52-10.384,10.018,0,0-17.592,8.307-10.751-12.461h-.733s-.977,12.095-9.285,10.751a2.84,2.84,0,0,1-2.077-3.787s-3.421,11-8.674,8.674c-5.131-2.443,7.574-28.71,15.271-36.651,0,0-9.285-4.154-5.131-8.307,0,0,3.787-5.5,19.669,3.421C155,177.415,167.1,181.813,178.336,179.98Z" transform="translate(27.498 38.094)" fill="#fedfc0"/>
      <path id="Path_102" data-name="Path 102" d="M175.3,196.3l8.063,1.344c2.688.611,5.253,1.222,7.941,1.833,5.375,1.1,10.629,2.077,16,2.688a119.655,119.655,0,0,0,16.248.977,59.933,59.933,0,0,0,8.063-.733,25.356,25.356,0,0,0,7.819-1.955,23.417,23.417,0,0,1-7.574,3.3,62,62,0,0,1-8.185.855,104.291,104.291,0,0,1-16.371-.977c-5.375-.611-10.873-1.588-16.126-2.688-2.688-.489-5.375-1.1-7.941-1.833C180.431,198.133,177.743,197.277,175.3,196.3Z" transform="translate(38.842 43.765)" fill="#b89a8a"/>
      <path id="Path_103" data-name="Path 103" d="M127.2,213.68c.244,0,.367-.244.611-.366.122-.122.244-.367.367-.489a4.953,4.953,0,0,0,.611-1.1,8.639,8.639,0,0,0,1.466-2.2c.855-1.588,1.71-3.176,2.443-4.887l1.1-2.566a22.024,22.024,0,0,0,.977-2.566c.367-.855.611-1.71.977-2.566a27.641,27.641,0,0,1,1.588-2.443,20.051,20.051,0,0,1-.244,2.81c-.244.855-.611,1.71-.977,2.688-.367.855-.611,1.71-.977,2.566l-1.1,2.566a38.7,38.7,0,0,1-2.566,5.009,27.639,27.639,0,0,1-1.588,2.443c-.244.122-.366.367-.611.489s-.367.244-.611.367A2.864,2.864,0,0,1,127.2,213.68Z" transform="translate(28.179 43.366)" fill="#b89a8a"/>
      <path id="Path_104" data-name="Path 104" d="M147.5,203.209a3.614,3.614,0,0,1,.244-1.222l.733-.733a18.286,18.286,0,0,1,1.588-1.344,20.73,20.73,0,0,1,1.71-1.222,3.062,3.062,0,0,1,.855-.489,4.155,4.155,0,0,1,1.222.122c-.122.367-.367.733-.489,1.1-.244.122-.611.367-.855.489-.489.367-1.1.733-1.588,1.1s-.977.855-1.466,1.222a3.239,3.239,0,0,1-.733.611A2.064,2.064,0,0,1,147.5,203.209Z" transform="translate(32.679 44.186)" fill="#b89a8a"/>
      <path id="Path_105" data-name="Path 105" d="M149.3,200.932a6.774,6.774,0,0,1,.733-.977,3.568,3.568,0,0,1,1.1-.244,4.073,4.073,0,0,1,1.222,0,1.056,1.056,0,0,1,.733.367,2.555,2.555,0,0,1,.489.733,2.5,2.5,0,0,1,0,1.344l-.367,1.1a3.658,3.658,0,0,1-.489.977,4.34,4.34,0,0,1-1.1.489,4.156,4.156,0,0,1-.122-1.222c.122-.244.244-.611.367-.855a2.3,2.3,0,0,0,.244-1.466c0-.122,0-.122-.244-.122h-.733a2.266,2.266,0,0,0-.855.244C150.033,201.054,149.667,201.054,149.3,200.932Z" transform="translate(33.079 44.509)" fill="#b89a8a"/>
      <path id="Path_106" data-name="Path 106" d="M132.1,189.762a6.205,6.205,0,0,1,.367-2.077c.367-.611.733-1.1,1.1-1.71.733-1.1,1.466-2.2,2.321-3.3a31.856,31.856,0,0,1,2.81-2.932,5.173,5.173,0,0,1,.855-.611c.244-.244.611-.367.855-.611a3.383,3.383,0,0,1,1.1-.122h1.1l-.733.733-.733.733c-.244.122-.489.367-.733.489a3.24,3.24,0,0,0-.733.611,18.628,18.628,0,0,0-2.688,2.688,23.831,23.831,0,0,0-2.2,3.054,7.789,7.789,0,0,0-.977,1.71A6.421,6.421,0,0,0,132.1,189.762Z" transform="translate(29.266 39.797)" fill="#b89a8a"/>
      <path id="Path_107" data-name="Path 107" d="M152.442,56.008a9.121,9.121,0,0,0-17.837,0,.623.623,0,0,0,1.222.244,7.835,7.835,0,0,1,7.574-6.231,7.712,7.712,0,0,1,7.574,6.231c.122.367.367.611.733.489C152.32,56.741,152.565,56.374,152.442,56.008Z" transform="translate(29.814 11.066)" fill="#b99b8b"/>
      <path id="Path_108" data-name="Path 108" d="M183.942,56.008a9.121,9.121,0,0,0-17.837,0,.623.623,0,0,0,1.222.244,7.835,7.835,0,0,1,7.574-6.231,7.712,7.712,0,0,1,7.574,6.231c.122.367.367.611.733.489C183.82,56.741,184.065,56.374,183.942,56.008Z" transform="translate(36.797 11.066)" fill="#b99b8b"/>
      <path id="Path_109" data-name="Path 109" d="M198.7,49.443a.12.12,0,0,0-.122-.122,9.133,9.133,0,0,0-3.543-1.955h0c-.244-.122-.489-.122-.733-.244A37.977,37.977,0,0,0,184.287,45.9a33.473,33.473,0,0,0-10.018,1.222,8.549,8.549,0,0,0-3.176,1.466,3.232,3.232,0,0,0-1.466,2.321v.733a10.552,10.552,0,0,0-5.742-1.466,11.736,11.736,0,0,0-5.742,1.466v-.733a2.9,2.9,0,0,0-1.466-2.321,10.91,10.91,0,0,0-3.176-1.466A37.977,37.977,0,0,0,143.482,45.9a33.474,33.474,0,0,0-10.018,1.222c-.122,0-.367.122-.489.122h-.122c-.244.122-.489.122-.733.244a1.736,1.736,0,0,1-.733.244c-.489.244-.977.367-1.466.611-.122.122-.367.122-.489.244-.367.489-.611.733-.611.855a.735.735,0,0,0-.122.489v9.773c0,2.688,1.833,5.009,4.4,6.475a20.245,20.245,0,0,0,10.262,2.443,20.568,20.568,0,0,0,10.262-2.443c2.688-1.588,4.4-3.787,4.4-6.475V53.474c.977-1.1,3.176-1.955,5.742-1.955a8.264,8.264,0,0,1,5.742,1.955v6.231c0,2.688,1.833,5.009,4.4,6.475a20.245,20.245,0,0,0,10.262,2.443,20.568,20.568,0,0,0,10.262-2.443c2.688-1.588,4.4-3.787,4.4-6.475V49.932C198.947,49.809,198.825,49.565,198.7,49.443ZM156.554,59.705c0,1.955-1.344,3.787-3.665,5.131a19.111,19.111,0,0,1-9.407,2.2,19.458,19.458,0,0,1-9.407-2.2c-2.321-1.344-3.665-3.176-3.665-5.131V50.787c0-.244.122-.611.733-.977a11.314,11.314,0,0,1,2.688-1.222,34.6,34.6,0,0,1,9.529-1.1,34,34,0,0,1,9.529,1.1,6.918,6.918,0,0,1,2.688,1.222c.611.367.733.733.733.977v8.918Zm40.682,0c0,1.955-1.344,3.787-3.665,5.131a19.111,19.111,0,0,1-9.407,2.2,19.458,19.458,0,0,1-9.407-2.2c-2.321-1.344-3.665-3.176-3.665-5.131V50.787c0-.244.122-.611.733-.977a11.314,11.314,0,0,1,2.688-1.222,34.6,34.6,0,0,1,9.529-1.1,34,34,0,0,1,9.529,1.1,6.918,6.918,0,0,1,2.688,1.222c.611.367.733.733.733.977v8.918Z" transform="translate(28.512 10.423)" fill="#5c5c5c"/>
      <path id="Path_110" data-name="Path 110" d="M185.1,50.033l10.751,5.131.977-1.955L185.955,48.2" transform="translate(41.015 10.933)" fill="#5c5c5c"/>
    </g>
    <g id="Group_162" data-name="Group 162" transform="translate(208.66 252.934)">
      <g id="Group_161" data-name="Group 161" transform="translate(5.009)">
        <path id="Path_111" data-name="Path 111" d="M188.8,207.8h2.077v4.765h4.887V207.8h2.077v11.973h-2.077V214.4h-4.887v5.375H188.8Z" transform="translate(-171.819 -206.823)" fill="#333"/>
        <path id="Path_112" data-name="Path 112" d="M201.932,210c2.443,0,3.787,1.71,3.787,4.276a2.382,2.382,0,0,1-.122.977h-5.742a2.68,2.68,0,0,0,2.688,2.566,4.118,4.118,0,0,0,2.077-.611l.733,1.344a5.346,5.346,0,0,1-3.054.977c-2.566,0-4.4-1.71-4.4-4.765A4.28,4.28,0,0,1,201.932,210m1.833,4.032c0-1.466-.611-2.321-1.833-2.321-1.1,0-1.955.733-2.2,2.321Z" transform="translate(-169.802 -206.335)" fill="#333"/>
        <path id="Path_113" data-name="Path 113" d="M210.332,213.543c0-.977-.366-1.71-1.588-1.71a5.336,5.336,0,0,0-2.566.855l-.733-1.466A7.279,7.279,0,0,1,209.111,210c2.321,0,3.421,1.344,3.421,3.909v5.375h-1.71l-.122-.977h0a4.209,4.209,0,0,1-2.81,1.222,2.565,2.565,0,0,1-2.688-2.688c-.122-1.955,1.466-2.932,5.131-3.3m-1.955,4.276a2.754,2.754,0,0,0,1.955-.977v-1.955c-2.443.366-3.3.977-3.3,1.833a1.154,1.154,0,0,0,1.344,1.1" transform="translate(-168.184 -206.335)" fill="#333"/>
        <path id="Path_114" data-name="Path 114" d="M213,207h2.077v10.751c0,.489.244.733.489.733h.367l.244,1.588a2.439,2.439,0,0,1-1.1.244c-1.466,0-2.077-.977-2.077-2.566Z" transform="translate(-166.454 -207)" fill="#333"/>
        <path id="Path_115" data-name="Path 115" d="M217.244,212.354H215.9v-1.588l1.344-.122.244-2.443h1.71v2.443h2.321v1.71H219.2v4.276c0,1.1.367,1.588,1.222,1.588a2.3,2.3,0,0,0,.977-.244l.367,1.588a6.921,6.921,0,0,1-1.833.367c-2.077,0-2.932-1.344-2.932-3.3v-4.276Z" transform="translate(-165.811 -206.734)" fill="#333"/>
        <path id="Path_116" data-name="Path 116" d="M221.8,207h2.077v3.3l-.122,1.71a4.145,4.145,0,0,1,2.932-1.344c1.955,0,2.81,1.344,2.81,3.543v5.62H227.42v-5.375c0-1.466-.367-2.077-1.466-2.077a2.932,2.932,0,0,0-2.077,1.1v6.353H221.8Z" transform="translate(-164.503 -207)" fill="#333"/>
        <path id="Path_117" data-name="Path 117" d="M235.12,207.6a4.561,4.561,0,0,1,3.421,1.588l-1.222,1.344a3.059,3.059,0,0,0-2.2-.977c-1.955,0-3.421,1.71-3.421,4.4s1.344,4.4,3.3,4.4a3.438,3.438,0,0,0,2.566-1.222l1.222,1.344a4.826,4.826,0,0,1-3.787,1.71c-3.054,0-5.5-2.2-5.5-6.231s2.566-6.353,5.62-6.353" transform="translate(-162.796 -206.867)" fill="#333"/>
        <path id="Path_118" data-name="Path 118" d="M243.235,213.543c0-.977-.367-1.71-1.588-1.71a5.336,5.336,0,0,0-2.566.855l-.733-1.466A7.279,7.279,0,0,1,242.014,210c2.321,0,3.421,1.344,3.421,3.909v5.375h-1.71l-.122-.977h0a4.209,4.209,0,0,1-2.81,1.222,2.565,2.565,0,0,1-2.688-2.688c-.244-1.955,1.466-2.932,5.131-3.3m-1.955,4.276a2.754,2.754,0,0,0,1.955-.977v-1.955c-2.443.366-3.3.977-3.3,1.833s.611,1.1,1.344,1.1" transform="translate(-160.894 -206.335)" fill="#333"/>
        <path id="Path_119" data-name="Path 119" d="M245.8,210.244h1.71l.122,1.588h.122A2.949,2.949,0,0,1,250.32,210c.489,0,.733,0,.977.244l-.367,1.833a2.69,2.69,0,0,0-.977-.122c-.733,0-1.588.489-2.077,1.833v5.5H245.8v-9.04Z" transform="translate(-159.182 -206.335)" fill="#333"/>
        <path id="Path_120" data-name="Path 120" d="M254.633,210c2.443,0,3.787,1.71,3.787,4.276a2.381,2.381,0,0,1-.122.977h-5.742a2.68,2.68,0,0,0,2.688,2.566,4.118,4.118,0,0,0,2.077-.611l.733,1.344a5.346,5.346,0,0,1-3.054.977c-2.566,0-4.4-1.71-4.4-4.765-.122-2.932,1.833-4.765,4.032-4.765m1.833,4.032c0-1.466-.611-2.321-1.833-2.321-1.1,0-1.955.733-2.2,2.321Z" transform="translate(-158.119 -206.335)" fill="#333"/>
        <path id="Path_121" data-name="Path 121" d="M259.2,215.9a1.128,1.128,0,0,1,1.1,1.222,1.1,1.1,0,1,1-2.2,0,1.128,1.128,0,0,1,1.1-1.222" transform="translate(-156.456 -205.027)" fill="#818181"/>
        <path id="Path_122" data-name="Path 122" d="M265.477,210.1a3.366,3.366,0,0,1,2.566,1.1l-.733.977a2.486,2.486,0,0,0-1.833-.733c-1.588,0-2.81,1.344-2.81,3.421s1.1,3.421,2.81,3.421a2.947,2.947,0,0,0,2.077-.855l.733.977a4.378,4.378,0,0,1-2.932,1.1c-2.321,0-4.154-1.71-4.154-4.642a4.251,4.251,0,0,1,4.276-4.765" transform="translate(-155.769 -206.313)" fill="#818181"/>
        <path id="Path_123" data-name="Path 123" d="M271.554,210.1c2.2,0,4.154,1.71,4.154,4.765,0,2.932-1.955,4.642-4.154,4.642s-4.154-1.71-4.154-4.642c0-3.054,1.955-4.765,4.154-4.765m0,8.185c1.588,0,2.566-1.344,2.566-3.421s-.977-3.421-2.566-3.421-2.566,1.344-2.566,3.421c0,1.955.977,3.421,2.566,3.421" transform="translate(-154.394 -206.313)" fill="#818181"/>
        <path id="Path_124" data-name="Path 124" d="M275.8,210.322h1.222l.122,1.344h0a3.782,3.782,0,0,1,2.81-1.466,2.3,2.3,0,0,1,2.443,1.71c.977-.977,1.832-1.71,2.932-1.71,1.833,0,2.688,1.222,2.688,3.543v5.62h-1.466v-5.5c0-1.71-.489-2.443-1.71-2.443a3.124,3.124,0,0,0-2.2,1.344v6.475h-1.466v-5.5c0-1.71-.489-2.443-1.71-2.443a3.37,3.37,0,0,0-2.2,1.344v6.475H275.8Z" transform="translate(-152.532 -206.291)" fill="#818181"/>
        <path id="Path_125" data-name="Path 125" d="M183.2,210.4a2.2,2.2,0,1,1-2.2-2.2,2.19,2.19,0,0,1,2.2,2.2" transform="translate(-174.035 -206.734)" fill="#818181"/>
        <path id="Path_126" data-name="Path 126" d="M177.954,213.431a14.693,14.693,0,0,0-3.054,1.588l1.1,1.222,2.321,2.566s2.932-4.276,10.384-3.176a9.714,9.714,0,0,0-10.751-2.2" transform="translate(-174.9 -205.735)" fill="#818181"/>
      </g>
      <path id="Path_127" data-name="Path 127" d="M177.121,209.41a1.71,1.71,0,1,1-1.71-1.71,1.747,1.747,0,0,1,1.71,1.71" transform="translate(-170.157 -206.845)" fill="#58b2e4"/>
      <path id="Path_128" data-name="Path 128" d="M172.633,212.153a7.975,7.975,0,0,0-1.833,1.222l2.2,2.443a9.373,9.373,0,0,1,7.086-3.665,8.912,8.912,0,0,0-7.452,0" transform="translate(-170.8 -206.044)" fill="#58b2e4"/>
    </g>
    <g id="Group_163" data-name="Group 163" transform="translate(264.369 270.893)">
      <path id="Path_129" data-name="Path 129" d="M216.522,221.7h1.466v5.864a2.445,2.445,0,0,0,2.688,2.688,2.409,2.409,0,0,0,2.566-2.688V221.7h1.466v5.986c0,2.443-1.344,4.032-4.154,4.032-2.688,0-4.154-1.588-4.154-4.032V221.7Z" transform="translate(-216.4 -221.7)" fill="#333"/>
      <path id="Path_130" data-name="Path 130" d="M225.133,229.053a3.673,3.673,0,0,0,2.321.977c.977,0,1.466-.367,1.466-.977,0-.733-.855-.977-1.71-1.1-1.222-.244-2.566-.611-2.566-2.077,0-1.1.977-2.077,2.688-2.077a4.163,4.163,0,0,1,2.688.977l-.611.977a2.737,2.737,0,0,0-2.077-.855c-.855,0-1.466.367-1.466.977s.733.855,1.588.977c1.222.244,2.688.611,2.688,2.2,0,1.222-.977,2.2-2.81,2.2a3.963,3.963,0,0,1-2.932-1.1Z" transform="translate(-214.627 -221.234)" fill="#333"/>
      <path id="Path_131" data-name="Path 131" d="M233.743,223.7a3.509,3.509,0,0,1,3.421,3.787v.367h-5.62a2.33,2.33,0,0,0,2.443,2.2,2.679,2.679,0,0,0,2.077-.855l.611.855a3.87,3.87,0,0,1-2.81,1.1,3.528,3.528,0,0,1-3.665-3.665A3.6,3.6,0,0,1,233.743,223.7Zm-2.2,3.3h4.276a2.015,2.015,0,0,0-2.2-2.077C232.4,224.8,231.666,226.021,231.544,227Z" transform="translate(-213.341 -221.257)" fill="#333"/>
      <path id="Path_132" data-name="Path 132" d="M237.3,223.922h1.344v1.1a2.78,2.78,0,0,1,2.321-1.222v1.344h-.489a2.492,2.492,0,0,0-1.833.977v4.887H237.3Z" transform="translate(-211.767 -221.234)" fill="#333"/>
    </g>
  </g>
</svg>
