<svg xmlns="http://www.w3.org/2000/svg" width="23.547" height="26.911" viewBox="0 0 23.547 26.911">
  <path id="Icon_awesome-shopping-bag" data-name="Icon awesome-shopping-bag" d="M18.5,8.41V6.728a6.728,6.728,0,0,0-13.455,0V8.41H0v14.3a4.2,4.2,0,0,0,4.2,4.2H19.342a4.2,4.2,0,0,0,4.2-4.2V8.41ZM8.41,6.728a3.364,3.364,0,0,1,6.728,0V8.41H8.41Zm8.41,6.307a1.261,1.261,0,1,1,1.261-1.261A1.261,1.261,0,0,1,16.819,13.035Zm-10.092,0a1.261,1.261,0,1,1,1.261-1.261A1.261,1.261,0,0,1,6.728,13.035Z" fill="#46bcff"/>
</svg>
