<svg width="21" height="21" viewBox="0 0 21 21" fill="none" xmlns="http://www.w3.org/2000/svg">
<path fill-rule="evenodd" clip-rule="evenodd" d="M20.7536 19.4437L14.9255 13.5609C16.066 12.1311 16.7536 10.3194 16.7536 8.34937C16.7536 3.73812 13.0155 0 8.39877 0C3.78206 0 0.0439453 3.74357 0.0439453 8.35482C0.0439453 12.9661 3.78206 16.7042 8.39877 16.7042C10.3961 16.7042 12.2242 16.0057 13.6649 14.8379L19.4549 20.6824C19.6295 20.868 19.8696 20.9607 20.1043 20.9607C20.328 20.9607 20.5517 20.8789 20.7209 20.7152C21.0811 20.3714 21.092 19.8038 20.7536 19.4437ZM8.39877 14.9088C6.64704 14.9088 4.99899 14.2267 3.76023 12.9879C2.52147 11.7491 1.83933 10.1011 1.83933 8.35482C1.83933 6.60309 2.52147 4.95505 3.76023 3.72174C4.99899 2.48298 6.64704 1.80084 8.39877 1.80084C10.1505 1.80084 11.7985 2.48298 13.0373 3.72174C14.2761 4.96051 14.9582 6.60855 14.9582 8.35482C14.9582 10.1066 14.2761 11.7546 13.0373 12.9879C11.7985 14.2267 10.1505 14.9088 8.39877 14.9088Z" fill="#A3A3A3"/>
</svg>
